<svg version="1.1" xmlns="http://www.w3.org/2000/svg" xmlns:xlink="http://www.w3.org/1999/xlink" width="66.25" height="65.25" viewBox="0,0,66.25,65.25"><defs><radialGradient cx="79.5" cy="69.875" r="33.125" gradientUnits="userSpaceOnUse" id="color-1"><stop offset="0" stop-color="#000000" stop-opacity="0"/><stop offset="1" stop-color="#000000" stop-opacity="0"/></radialGradient><radialGradient cx="80" cy="72" r="28.75" gradientUnits="userSpaceOnUse" id="color-2"><stop offset="0" stop-color="#009cff" stop-opacity="0"/><stop offset="1" stop-color="#009cff" stop-opacity="0.20392"/></radialGradient><radialGradient cx="66.625" cy="60.5" r="8.5" gradientUnits="userSpaceOnUse" id="color-3"><stop offset="0" stop-color="#ffffff"/><stop offset="1" stop-color="#ffffff" stop-opacity="0"/></radialGradient></defs><g transform="translate(-46.375,-37.25)"><g stroke="none" stroke-width="0" stroke-miterlimit="10"><path d="M46.375,102.5v-65.25h66.25v65.25z" fill="url(#color-1)"/><path d="M51.25,72c0,-15.87819 12.87181,-28.75 28.75,-28.75c15.87819,0 28.75,12.87181 28.75,28.75c0,15.87819 -12.87181,28.75 -28.75,28.75c-15.87819,0 -28.75,-12.87181 -28.75,-28.75z" fill="url(#color-2)"/><path d="M58.125,60.5c0,-4.69442 3.80558,-8.5 8.5,-8.5c4.69442,0 8.5,3.80558 8.5,8.5c0,4.69442 -3.80558,8.5 -8.5,8.5c-4.69442,0 -8.5,-3.80558 -8.5,-8.5z" fill="url(#color-3)"/></g></g></svg>