<svg version="1.1" xmlns="http://www.w3.org/2000/svg" xmlns:xlink="http://www.w3.org/1999/xlink" width="57.75586" height="42.53217" viewBox="0,0,57.75586,42.53217"><g transform="translate(-58.71437,-49.786)"><g stroke-miterlimit="10"><path d="M86.05721,75.38313v-4.98927c0,0 7.80031,-1.20981 12.97756,-2.29849c2.30426,-0.48454 8.28008,-7.97142 9.13689,-7.97142c0.97387,0 0.70347,23.75209 -0.22302,23.75209c-0.79388,0 -6.95466,-6.74055 -9.12635,-6.96954c-5.3077,-0.55965 -12.76508,-1.52338 -12.76508,-1.52338z" fill="#1000ff" stroke="#0077ff" stroke-width="5"/><path d="M65.87493,72c0,-7.80106 6.32401,-14.12508 14.12507,-14.12508c7.80106,0 14.12507,6.32401 14.12507,14.12508c0,7.80106 -6.32401,14.12507 -14.12507,14.12507c-7.80106,0 -14.12507,-6.32401 -14.12507,-14.12507z" fill="#1000ff" stroke="#0077ff" stroke-width="5"/><path d="M58.71437,92.31817v-42.53217h57.75586v42.53217z" fill="none" stroke="none" stroke-width="0"/></g></g></svg>