<svg version="1.1" xmlns="http://www.w3.org/2000/svg" xmlns:xlink="http://www.w3.org/1999/xlink" width="57.48643" height="60.02131" viewBox="0,0,57.48643,60.02131"><g transform="translate(-64.26357,-59.11241)"><g stroke="none" stroke-width="0" stroke-miterlimit="10"><path d="M64.26357,84.8876v-25.77519h31.47287v25.77519z" fill="#585858"/><path d="M95.56783,74.96512v-7.86822h21.29845v7.86822z" fill="#585858"/><path d="M115.37403,105.60271v-38.52713h6.37597v38.52713z" fill="#585858"/><path d="M93,106.75v-6.75h9.25v6.75z" fill="#585858"/><path d="M71.11629,110.75c0,-4.6302 3.75352,-8.38371 8.38371,-8.38371c4.6302,0 8.38371,3.75352 8.38371,8.38371c0,4.6302 -3.75352,8.38372 -8.38371,8.38372c-4.6302,0 -8.38371,-3.75352 -8.38371,-8.38372zM79.45964,117.25844c5.76457,0.02853 6.35955,-5.3929 6.35955,-5.3929h-12.36297c0,0 0.44263,5.36538 6.00342,5.3929zM82.558,109.27254c0.62622,0 1.13386,-0.50765 1.13386,-1.13386c0,-0.62622 -0.50765,-1.13386 -1.13386,-1.13386c-0.62622,0 -1.13386,0.50765 -1.13386,1.13386c0,0.62622 0.50765,1.13386 1.13386,1.13386zM76.44201,109.27254c0.62622,0 1.13386,-0.50765 1.13386,-1.13386c0,-0.62622 -0.50765,-1.13386 -1.13386,-1.13386c-0.62622,0 -1.13386,0.50765 -1.13386,1.13386c0,0.62622 0.50765,1.13386 1.13386,1.13386z" fill="#00ff15"/></g></g></svg>