<svg version="1.1" xmlns="http://www.w3.org/2000/svg" xmlns:xlink="http://www.w3.org/1999/xlink" width="57.48643" height="60.02131" viewBox="0,0,57.48643,60.02131"><g transform="translate(-37.51357,-59.11241)"><g stroke="none" stroke-width="0" stroke-miterlimit="10"><path d="M63.52713,84.8876v-25.77519h31.47287v25.77519z" fill="#585858"/><path d="M42.39729,74.96512v-7.86822h21.29845v7.86822z" fill="#585858"/><path d="M37.51357,105.60271v-38.52713h6.37597v38.52713z" fill="#585858"/><path d="M57.01357,106.75v-6.75h9.25v6.75z" fill="#585858"/><path d="M79.76357,119.13372c-4.63019,0 -8.38371,-3.75352 -8.38371,-8.38372c0,-4.63019 3.75351,-8.38371 8.38371,-8.38371c4.63019,0 8.38371,3.75351 8.38371,8.38371c0,4.6302 -3.75351,8.38372 -8.38371,8.38372zM85.80735,111.86554h-12.36297c0,0 0.59498,5.42143 6.35955,5.3929c5.56079,-0.02752 6.00342,-5.3929 6.00342,-5.3929zM77.83943,108.13868c0,-0.62621 -0.50764,-1.13386 -1.13386,-1.13386c-0.62621,0 -1.13386,0.50764 -1.13386,1.13386c0,0.62621 0.50764,1.13386 1.13386,1.13386c0.62621,0 1.13386,-0.50764 1.13386,-1.13386zM83.95542,108.13868c0,-0.62621 -0.50764,-1.13386 -1.13386,-1.13386c-0.62621,0 -1.13386,0.50764 -1.13386,1.13386c0,0.62621 0.50764,1.13386 1.13386,1.13386c0.62621,0 1.13386,-0.50764 1.13386,-1.13386z" fill="#00ff15"/></g></g></svg>