<svg version="1.1" xmlns="http://www.w3.org/2000/svg" xmlns:xlink="http://www.w3.org/1999/xlink" width="31.85113" height="35.32159" viewBox="0,0,31.85113,35.32159"><g transform="translate(-64.07444,-54.3392)"><g fill="#ffffff" stroke="none" stroke-width="0.5" stroke-miterlimit="10"><path d="M70.98003,85.88966c0,-0.38089 0.08518,-0.74189 0.23753,-1.06499l0.60572,-1.36286l0.05952,-0.07619l0.02383,-0.09371l1.06655,-1.98073l1.20568,-2.56207l1.6587,-3.92055l0.15551,-0.5011l-0.00638,-0.00344l-5.38837,-2.39483l-3.26917,-0.89159l-0.06195,-0.03476l-0.07082,-0.00545l-1.41251,-0.47083l-0.1795,-0.11423l-0.27993,-0.06998l-0.09712,-0.16996l-0.53048,-0.33758l-0.18178,-0.90887l-0.44062,-0.77109l0.21215,-0.37127l-0.08386,-0.4193l0.66185,-0.59219l0.45986,-0.80474l0.61001,-0.15251l0.14588,-0.13053l0.2877,0.02213l0.20641,-0.0516h3.55978l2.62092,-0.43682l0.02978,0.00238l0.02767,-0.01127l4.31586,-0.61655l0.75169,-0.1566l0.00548,-1.30862v-5.3309l0.09747,-0.38987l0.03082,-0.4007l0.02866,-0.08596v-0.06514l0.26676,-1.06705l-0.00283,-0.05098l0.01869,-0.01246l0.02988,-0.11951l1.04567,-0.59752l1.00207,-0.66805l0.12025,0.02672l0.01951,-0.01114l0.04433,0.02533l1.0737,0.2386l0.62778,0.31389l0.0219,0.01877l0.05257,-0.00207l0.43986,0.42415l0.46395,0.39767l0.00292,0.05252l0.02076,0.02002l0.75362,1.20579l1.3791,1.99203l0.04425,0.11734l0.08567,0.09158l0.78473,1.4125l0.00917,0.03421l0.02347,0.02652l1.00914,1.94066l1.67771,-0.26812l3.18961,-0.60755l0.55893,-0.13974h0.47571l0.13063,-0.07464l0.13063,0.07464h0.5515l0.66761,0.69664l0.83776,0.47872l0.13376,0.53503l0.10409,0.10863l-0.04073,0.14483l0.11538,0.46151v0.78472l-0.02439,0.09758l0.03788,0.07577l-0.1894,0.53033l-0.13658,0.54633l-0.07354,0.04202l-0.03383,0.09472l-2.82502,4.23752l-0.02533,0.02303l-0.01237,0.03193l-1.34068,1.89929l0.05,0.12499l0.01287,0.09444l0.04989,0.08121l0.94168,2.98196l0.00353,0.05791l0.0281,0.05076l0.59937,2.24762l0.56041,1.54113l0.47765,1.07473l0.30116,0.40154l0.15595,0.37038l0.21576,0.33904l0.10076,0.30228l0.23444,0.46887l0.27951,1.25779l-0.30817,0.46226l0.02867,0.51602l-0.67082,0.44721l-0.44721,0.67082l-0.51601,-0.02866l-0.46227,0.30817l-1.25778,-0.27951l-0.28436,-0.14218l-0.03824,0.00263l-0.47854,-0.43503l-0.49103,-0.42089l-0.00213,-0.03826l-0.3553,-0.53294l-0.72575,-0.51839l-0.1355,-0.15907l-0.17918,-0.1075l-3.31612,-3.31612l-0.04552,-0.03327l-1.33299,1.80906l-0.14685,0.1214l-0.09803,0.16338l-0.78472,0.78472l-0.09911,0.05947l-0.06819,0.09332l-0.71734,0.59778l-1.13943,1.51924l-0.00156,0.02804l-0.05451,0.04673l-0.0418,0.05573l-0.32056,0.26045l-0.07115,0.14231l-0.13284,0.15497l-0.00692,0.12453l-0.37626,0.32251l-0.32251,0.37627l-0.12453,0.00692l-0.15498,0.13284l-0.26492,0.13245l-0.37223,0.37223l-0.36423,0.48565l-0.13966,0.11346l-0.09258,0.1543l-0.31389,0.31389l-0.42292,0.25375l-0.09485,0.16598l-0.31164,0.07791l-0.27545,0.16528l-0.16047,-0.04377l-0.01219,0.0061l-0.56075,0.12462l-0.00473,0.00118l-0.0623,0.03115l-0.83853,0.18634l-0.13975,0.09317l-0.13976,-0.03106l-0.13975,0.03106l-0.13976,-0.09317l-0.83852,-0.18634l-0.31389,-0.15695l-0.97828,-0.83853l-0.008,-0.14392c-0.87731,-0.31661 -1.52668,-1.11008 -1.63522,-2.06753l-0.02267,-0.03087l0.01299,-0.07422c-0.00421,-0.05933 -0.00635,-0.11922 -0.00635,-0.17961z"/></g></g></svg>